<svg xmlns="http://www.w3.org/2000/svg" xmlns:xlink="http://www.w3.org/1999/xlink" id="body_1" width="71" height="90">

<g transform="matrix(0.5071429 0 0 0.5071429 -0 0.37142703)">
	<g>
		<g transform="matrix(1 0 0 1 -309 -3029)">
			<g transform="matrix(1 0 0 1 121 1821)">
				<g transform="matrix(0.8660255 0.49999973 -0.49999973 0.8660255 244.99991 1180.9998)">
					<g>
                        <path d="M56.416183 19.421965C 50.86705 24.971098 65.66474 28.67052 67.51445 22.196531C 68.43931 18.49711 59.19075 17.572254 56.416183 19.421965z" stroke="none" fill="#000000" fill-rule="nonzero" />
                        <path d="M31.445087 36.069363C 37.919075 43.46821 40.69364 47.16763 49.942196 44.393063C 35.14451 35.14451 36.99422 22.196531 46.242775 16.647398C 51.79191 13.872832 53.641617 6.4739885 66.58959 10.17341C 63.81503 -0.9248555 51.79191 0.9248555 41.618496 7.398844C 39.768787 9.248555 20.34682 15.722544 31.445087 36.069363z" stroke="none" fill="#000000" fill-rule="nonzero" />
                        <path d="M73.06358 30.520231C 78.61272 23.121387 72.138725 20.34682 69.36416 21.271677C 64.73988 35.14451 49.01734 18.49711 49.942196 26.820808C 54.566475 35.14451 66.58959 37.919075 73.06358 30.520231z" stroke="none" fill="#000000" fill-rule="nonzero" />
                        <path d="M52.716763 12.947977C 49.01734 14.797688 48.092487 22.196531 53.641617 21.271677C 51.79191 12.947977 75.83815 19.421965 76.76301 23.121387C 77.68786 24.046244 77.68786 24.971098 77.68786 25.895954C 80.462425 27.745665 85.08671 22.196531 80.462425 18.49711C 73.06358 10.17341 57.34104 8.323699 52.716763 12.947977z" stroke="none" fill="#000000" fill-rule="nonzero" />
                        <path d="M77.68786 28.67052C 63.81503 46.242775 45.31792 29.595375 49.01734 24.046244C 49.942196 20.34682 48.092487 19.421965 49.01734 16.647398C 40.69364 22.196531 39.768787 27.745665 42.543354 33.294796C 46.242775 44.393063 61.965317 44.393063 70.28902 41.618496C 77.68786 39.768787 85.08671 31.445087 77.68786 28.67052z" stroke="none" fill="#000000" fill-rule="nonzero" />
                        <path d="M49.01734 70.28902C 50.86705 63.81503 29.595375 65.66474 24.971098 48.092487C 12.023122 62.890175 43.46821 78.61272 49.01734 70.28902z" stroke="none" fill="#000000" fill-rule="nonzero" />
                        <path d="M70.28902 9.248555C 76.76301 10.17341 88.786125 17.572254 82.31214 24.971098C 87.861275 38.84393 68.43931 50.86705 52.716763 43.46821C 47.16763 49.01734 79.537575 60.11561 90.63584 40.69364C 102.65896 22.196531 82.31214 0 69.36416 8.323699C 68.43931 9.248555 69.36416 9.248555 70.28902 9.248555z" stroke="none" fill="#000000" fill-rule="nonzero" />
                        <path d="M24.046244 43.46821C 31.445087 59.19075 39.768787 64.73988 58.265896 63.81503C 63.81503 62.890175 85.08671 61.965317 85.08671 49.01734C 83.23699 51.79191 67.51445 58.265896 50.86705 48.092487C 36.99422 49.942196 28.67052 38.84393 27.745665 30.520231C 18.49711 33.294796 21.271677 36.99422 24.046244 43.46821z" stroke="none" fill="#000000" fill-rule="nonzero" />
                        <path d="M68.43931 6.4739885C 90.63584 -1.849711 107.28323 32.36994 87.861275 47.16763C 88.786125 50.86705 115.60693 44.393063 108.20809 23.121387C 98.95954 -5.549133 68.43931 -0.9248555 68.43931 6.4739885z" stroke="none" fill="#000000" fill-rule="nonzero" />
                        <path d="M51.79191 65.66474C 48.092487 65.66474 51.79191 72.138725 62.890175 73.98844C 83.23699 78.61272 104.508675 61.965317 103.58382 45.31792C 98.95954 49.01734 94.33526 50.86705 88.786125 50.86705C 86.01156 59.19075 77.68786 62.890175 70.28902 64.73988C 60.11561 66.58959 57.34104 64.73988 51.79191 65.66474z" stroke="none" fill="#000000" fill-rule="nonzero" />
                        <path d="M25.895954 129.47977C 25.895954 130.40462 25.895954 130.40462 24.971098 131.32948C 28.67052 133.17918 38.84393 130.40462 41.618496 128.55492C 40.69364 130.40462 41.618496 131.32948 40.69364 132.25433C 45.31792 132.25433 53.641617 126.7052 54.566475 125.78035C 55.49133 126.7052 55.49133 126.7052 55.49133 127.63006C 57.34104 126.7052 58.265896 125.78035 61.040462 122.080925C 64.73988 116.53179 67.51445 106.35838 66.58959 105.433525C 65.66474 104.508675 64.73988 105.433525 63.81503 106.35838C 62.890175 110.98266 61.040462 116.53179 57.34104 121.15607C 58.265896 118.3815 62.890175 110.98266 61.965317 106.35838C 60.11561 106.35838 58.265896 108.20809 54.566475 109.13295C 51.79191 115.60693 51.79191 120.23122 45.31792 125.78035C 49.01734 120.23122 51.79191 117.45665 52.716763 110.0578C 48.092487 110.0578 38.84393 113.757225 36.99422 118.3815C 36.99422 118.3815 36.99422 118.3815 36.069363 118.3815C 34.219654 120.23122 31.445087 122.080925 29.595375 124.85549C 34.219654 119.30636 36.99422 116.53179 36.99422 114.68208C 36.069363 113.757225 31.445087 113.757225 24.046244 114.68208C 22.196531 117.45665 19.421965 119.30636 16.647398 121.15607C 18.49711 119.30636 21.271677 116.53179 21.271677 114.68208C 17.572254 115.60693 8.323699 111.90752 5.549133 112.83237C 8.323699 110.98266 18.49711 115.60693 21.271677 112.83237C 18.49711 111.90752 15.722544 109.13295 12.023122 107.28323C 15.722544 109.13295 19.421965 110.98266 22.196531 112.83237C 24.046244 113.757225 26.820808 112.83237 29.595375 112.83237C 26.820808 108.20809 24.046244 105.433525 21.271677 104.508675C 30.520231 106.35838 24.971098 114.68208 38.84393 111.90752C 40.69364 111.90752 42.543354 110.98266 43.46821 110.0578C 42.543354 105.433525 36.99422 100.80925 31.445087 98.95954C 36.069363 98.03468 43.46821 107.28323 46.242775 110.0578C 50.86705 109.13295 55.49133 108.20809 56.416183 106.35838C 52.716763 102.65896 46.242775 99.88439 41.618496 98.03468C 47.16763 99.88439 52.716763 101.7341 58.265896 105.433525C 60.11561 103.58382 62.890175 103.58382 64.73988 102.65896C 61.965317 97.109825 53.641617 94.33526 49.01734 92.48555C 49.01734 94.33526 49.01734 94.33526 49.01734 96.184975C 45.31792 92.48555 36.99422 91.56069 32.36994 91.56069C 32.36994 92.48555 33.294796 93.41041 33.294796 94.33526C 29.595375 93.41041 26.820808 94.33526 23.121387 95.26012C 24.046244 95.26012 24.046244 96.184975 24.046244 97.109825C 21.271677 96.184975 18.49711 98.03468 13.872832 99.88439C 14.797688 101.7341 14.797688 101.7341 15.722544 103.58382C 12.947977 102.65896 7.398844 103.58382 5.549133 105.433525C 6.4739885 106.35838 5.549133 107.28323 6.4739885 108.20809C 3.699422 108.20809 2.7745664 109.13295 0 112.83237C 2.7745664 115.60693 5.549133 117.45665 7.398844 117.45665C 7.398844 117.45665 5.549133 118.3815 5.549133 119.30636C 10.17341 124.85549 14.797688 121.15607 12.023122 125.78035C 16.647398 128.55492 17.572254 129.47977 25.895954 129.47977z" stroke="none" fill="#000000" fill-rule="nonzero" />
                        <path d="M69.36416 79.537575C 70.28902 113.757225 100.80925 146.12717 127.63006 160C 98.95954 155.37572 64.73988 112.83237 63.81503 80.462425L63.81503 80.462425L69.36416 79.537575z" stroke="none" fill="#000000" fill-rule="nonzero" />
                        <path d="M136.87862 91.56069C 137.80347 91.56069 138.72832 92.48555 139.65318 91.56069C 139.65318 96.184975 134.10405 106.35838 130.40462 109.13295C 133.17918 108.20809 133.17918 110.0578 135.0289 109.13295C 134.10405 113.757225 124.85549 121.15607 123.00578 122.080925C 123.93063 123.00578 123.00578 123.93063 124.85549 123.93063C 123.00578 124.85549 122.080925 125.78035 117.45665 127.63006C 110.0578 130.40462 97.109825 129.47977 96.184975 127.63006C 96.184975 126.7052 97.109825 125.78035 98.03468 124.85549C 104.508675 125.78035 110.0578 124.85549 117.45665 123.00578C 113.757225 123.00578 104.508675 125.78035 99.88439 123.00578C 99.88439 121.15607 102.65896 119.30636 104.508675 116.53179C 112.83237 115.60693 118.3815 116.53179 126.7052 111.90752C 119.30636 113.757225 114.68208 115.60693 106.35838 114.68208C 109.13295 109.13295 114.68208 99.88439 121.15607 99.88439C 121.15607 99.88439 121.15607 99.88439 121.15607 99.88439C 124.85549 98.03468 127.63006 96.184975 130.40462 94.33526C 123.00578 97.109825 118.3815 99.88439 117.45665 98.03468C 116.53179 97.109825 118.3815 92.48555 122.080925 84.16185C 125.78035 83.23699 127.63006 81.38728 131.32948 78.61272C 129.47977 80.462425 124.85549 82.31214 123.00578 82.31214C 124.85549 77.68786 124.85549 66.58959 125.78035 63.81503C 123.00578 65.66474 124.85549 78.61272 121.15607 80.462425C 120.23122 77.68786 119.30636 73.98844 118.3815 68.43931C 118.3815 73.06358 119.30636 77.68786 120.23122 82.31214C 120.23122 84.16185 118.3815 86.93642 118.3815 89.71098C 113.757225 86.01156 111.90752 82.31214 111.90752 77.68786C 110.0578 88.786125 121.15607 86.01156 112.83237 99.88439C 111.90752 101.7341 110.98266 103.58382 110.0578 104.508675C 105.433525 100.80925 101.7341 93.41041 101.7341 87.861275C 98.95954 92.48555 106.35838 103.58382 108.20809 107.28323C 106.35838 111.90752 103.58382 116.53179 100.80925 116.53179C 98.95954 111.90752 98.03468 103.58382 97.109825 98.03468C 97.109825 105.433525 97.109825 111.90752 98.95954 118.3815C 97.109825 120.23122 96.184975 123.00578 94.33526 124.85549C 88.786125 119.30636 88.786125 109.13295 88.786125 103.58382C 90.63584 105.433525 90.63584 104.508675 92.48555 105.433525C 89.71098 99.88439 91.56069 90.63584 93.41041 85.08671C 94.33526 86.01156 94.33526 87.861275 96.184975 87.861275C 96.184975 83.23699 98.95954 80.462425 99.88439 76.76301C 100.80925 77.68786 101.7341 78.61272 102.65896 78.61272C 102.65896 74.91329 105.433525 72.138725 109.13295 68.43931C 110.0578 70.28902 110.98266 69.36416 111.90752 71.213875C 112.83237 67.51445 115.60693 62.890175 118.3815 61.040462C 119.30636 61.965317 120.23122 61.965317 121.15607 62.890175C 122.080925 60.11561 123.00578 59.19075 127.63006 57.34104C 130.40462 61.965317 131.32948 65.66474 130.40462 66.58959C 131.32948 67.51445 132.25433 65.66474 133.17918 65.66474C 136.87862 73.06358 132.25433 76.76301 137.80347 75.83815C 139.65318 81.38728 140.57803 82.31214 136.87862 91.56069z" stroke="none" fill="#000000" fill-rule="nonzero" />
					</g>
				</g>
			</g>
		</g>
	</g>
</g>
</svg>